# xmcd CD database file
#
# Track frame offsets:
#	182
#	23582
#	44807
#	82532
#	130232
#	148532
#	164807
#	190157
#	219107
#
# Disc length: 3396 seconds
#
# Revision: 4
# Processed by: cddbd v1.5.2PL0 Copyright (c) Steve Scherf et al.
# Submitted via: CDex 1.51
#
DISCID=740d4209
DTITLE=Chris Barber - Who´s Blues
DYEAR=1984
DGENRE=Blues
TTITLE0=The Weight
TTITLE1=Who's Blues
TTITLE2=Lady be Good
TTITLE3=Creole Love Call
TTITLE4=Undecided
TTITLE5=Each Day
TTITLE6=Untitled Blues
TTITLE7=At the Jazz Band Ball
TTITLE8=Snag it
EXTD=YEAR: 1984
EXTT0=
EXTT1=
EXTT2=
EXTT3=
EXTT4=
EXTT5=
EXTT6=
EXTT7=
EXTT8=
PLAYORDER=
